<svg xmlns="http://www.w3.org/2000/svg" viewBox="0 0 64 64"><path fill="#444" d="M47.651 24.033c-1.434 0-2.595 1.18-2.595 2.636v10.3c0 1.456 1.162 2.636 2.595 2.636s2.595-1.18 2.595-2.636v-10.3c0-1.456-1.162-2.636-2.595-2.636zm-31.302 0c-1.434 0-2.595 1.18-2.595 2.636v10.3c0 1.456 1.162 2.636 2.595 2.636s2.595-1.18 2.595-2.636v-10.3c0-1.456-1.163-2.636-2.595-2.636zM20.506 24.113v18.818c0 1.118.906 2.023 2.023 2.023h2.313v5.73c0 1.456 1.162 2.636 2.595 2.636s2.595-1.18 2.595-2.636v-5.73h4.039v5.73c0 1.456 1.162 2.636 2.595 2.636s2.595-1.18 2.595-2.636v-5.73h2.311a2.023 2.023 0 002.023-2.023V24.113H20.504zM37.473 14.362l2.133-3.097c.127-.183.095-.426-.07-.54s-.402-.058-.529.127l-2.215 3.216c-1.46-.575-3.083-.896-4.791-.896s-3.331.32-4.791.896l-2.215-3.216c-.127-.185-.364-.241-.529-.127s-.197.355-.07.54l2.133 3.097c-3.391 1.578-5.77 4.575-6.073 8.075h23.092c-.303-3.5-2.682-6.497-6.074-8.075zm-10.344 4.88a1.278 1.278 0 110-2.556 1.278 1.278 0 010 2.556zm9.901 0a1.278 1.278 0 110-2.556 1.278 1.278 0 010 2.556z"/></svg>